<svg width="40" height="40" viewBox="0 0 40 40" fill="none" xmlns="http://www.w3.org/2000/svg">
<circle cx="20" cy="20" r="19" fill="black" fill-opacity="0.92"/>
<path d="M18.4111 20.0279C19.4269 19.5438 19.9572 18.8113 19.9572 17.6712C19.9572 15.4228 18.2769 14.875 16.3379 14.875H11V26.1616H16.4881C18.5453 26.1616 20.4779 25.1775 20.4779 22.8846C20.4779 21.4674 19.8039 20.4196 18.4111 20.0279ZM13.4885 16.8018H15.8236C16.7212 16.8018 17.5294 17.0533 17.5294 18.0916C17.5294 19.0502 16.9001 19.4355 16.0121 19.4355H13.4885V16.8018ZM16.1494 24.2444H13.4885V21.1361H16.2006C17.2962 21.1361 17.9894 21.5916 17.9894 22.7476C17.9894 23.8877 17.1621 24.2444 16.1494 24.2444ZM27.6015 16.5788H23.0111V15.4674H27.6015V16.5788ZM29.4 22.1935C29.4 19.7763 27.9817 17.7604 25.4101 17.7604C22.9121 17.7604 21.2158 19.633 21.2158 22.0852C21.2158 24.6298 22.8226 26.375 25.4101 26.375C27.3683 26.375 28.6365 25.496 29.2467 23.6266H27.2597C27.0457 24.324 26.164 24.6935 25.4804 24.6935C24.1611 24.6935 23.4679 23.9228 23.4679 22.6139H29.3808C29.3904 22.4801 29.4 22.3368 29.4 22.1935ZM23.4711 21.1998C23.5446 20.1266 24.2601 19.4546 25.3399 19.4546C26.4707 19.4546 27.0393 20.117 27.1351 21.1998H23.4711Z" fill="#F5F5F5"/>
</svg>
