<svg width="40" height="40" viewBox="0 0 40 40" fill="none" xmlns="http://www.w3.org/2000/svg">
<circle cx="20" cy="20" r="19" fill="black" fill-opacity="0.92"/>
<path d="M20 8C13.3832 8 8 13.3832 8 20C8 26.6168 13.3832 32 20 32C26.6168 32 32 26.6168 32 20C32 13.3832 26.6168 8 20 8ZM27.934 13.5338C29.3616 15.278 30.2261 17.4995 30.2486 19.9188C29.9107 19.8473 26.522 19.16 23.1114 19.5889C22.8331 18.9095 22.5704 18.3118 22.2106 17.5753C26.0003 16.028 27.7179 13.8261 27.934 13.5338ZM26.7946 12.3485C26.6102 12.6111 25.0673 14.685 21.4226 16.0511C19.743 12.9651 17.8814 10.43 17.5981 10.0507C20.8485 9.26716 24.2738 10.1121 26.7946 12.3485ZM15.6423 10.7397C15.9125 11.1103 17.7441 13.6485 19.4425 16.6675C14.648 17.9407 10.4251 17.9224 9.96665 17.9164C10.6313 14.7357 12.7747 12.0922 15.6423 10.7397ZM9.75016 20.0156C9.75016 19.9108 9.75224 19.8065 9.75539 19.7024C10.2038 19.7116 15.1709 19.7756 20.2895 18.2437C20.583 18.818 20.8633 19.4009 21.1205 19.9832C17.4141 21.0272 14.0466 24.0248 12.3852 26.869C10.7481 25.0519 9.75016 22.6482 9.75016 20.0156ZM13.7086 28.1017C14.7792 25.913 17.6849 23.0878 21.8172 21.6781C23.2563 25.4176 23.8514 28.5516 24.0038 29.4509C20.708 30.8547 16.745 30.4696 13.7086 28.1017ZM25.727 28.5125C25.6219 27.889 25.0763 24.8885 23.7357 21.2045C26.9477 20.6903 29.7696 21.5319 30.1203 21.6426C29.6634 24.4946 28.0264 26.9576 25.727 28.5125Z" fill="#F5F5F5"/>
</svg>
