<svg width="40" height="40" viewBox="0 0 40 40" fill="none" xmlns="http://www.w3.org/2000/svg">
<path d="M20 8C13.3832 8 8 13.3832 8 20C8 26.6168 13.3832 32 20 32C26.6168 32 32 26.6168 32 20C32 13.3832 26.6168 8 20 8ZM20 9.8C25.644 9.8 30.2 14.356 30.2 20C30.2 24.5992 27.1742 28.4735 23 29.7512V26.682C23 25.536 22.3396 24.5532 21.3852 24.0641C22.3132 23.8865 23.1749 23.5345 23.8988 23.0371C24.6226 22.5398 25.1878 21.9115 25.5474 21.2044C25.9069 20.4973 26.0505 19.7319 25.9662 18.9715C25.8818 18.2111 25.5721 17.4778 25.0625 16.8324C25.3286 16.0132 25.6259 14.5764 24.9195 13.4457C23.5576 13.4457 22.6788 14.3793 22.2594 14.9598C21.5424 14.7242 20.7751 14.602 20 14.6C19.2244 14.6007 18.4563 14.7217 17.7383 14.9562C17.3178 14.3755 16.4397 13.4457 15.0805 13.4457C14.2698 14.7433 14.771 16.1387 15.0395 16.7082C14.4955 17.3508 14.1543 18.0894 14.0454 18.8606C13.9364 19.6318 14.0628 20.4126 14.4137 21.1362C14.7647 21.8597 15.3297 22.5044 16.0604 23.0149C16.791 23.5255 17.6656 23.8867 18.609 24.0676C17.8253 24.4715 17.2384 25.2044 17.0586 26.0937H16.2699C15.4917 26.0937 15.1893 25.7775 14.7687 25.2441C14.3535 24.7107 13.9071 24.3523 13.3707 24.2035C13.0815 24.1729 12.8867 24.3929 13.1387 24.5879C13.9901 25.1675 14.0488 26.1161 14.3902 26.7371C14.701 27.2963 15.3378 27.8 16.0578 27.8H17V29.7512C12.8258 28.4735 9.8 24.5992 9.8 20C9.8 14.356 14.356 9.8 20 9.8Z" fill="black" fill-opacity="0.92"/>
</svg>
