<svg xmlns="http://www.w3.org/2000/svg" viewBox="0 0 206.7 244.99"><g id="Layer_2" data-name="Layer 2"><g id="Layer_1-2" data-name="Layer 1"><path d="M194.36,59C176.66,15.8,128-10,86.43,3.69,47.32,16.6,28.62,46.59,25,85.88c-1.2,12.84-6.37,22-14.41,30.35-14.35,15-15,21,3.71,29,6.4,2.75,10.19,8.73,5.56,16.36-4.23,7-3.15,13.3,2.32,19.07,1.9,2,3.28,4.08,2.87,7.07-.94,6.81,1.83,11.55,8.2,14.28,8.59,3.68,11.52,10.81,10.63,19.46-1.35,13.19,4.22,20.79,17.43,22.73,5.78.84,11.55,1.24,17.34.08,14.24-2.83,28.85-6,35.14-21,7.33-17.53,10.36-35.47-5-51.06s-24-32.67-15.43-54.78c.18-.52.43-.53.74-.09-1.5,20.36,2.63,38.16,19.78,51.86,9.74,7.78,13,19.41,11.1,32-.74,5-1.87,10-2.83,15,9.85-3.82,14.55-11.93,14-26.42-.38-10.36,3.44-17.45,12.62-22.23,8.43-4.39,12.09-11.28,9.94-21.07-3.19-14.53,2.14-26,13.49-35.09l1.83-1.09a2.06,2.06,0,0,1,2.9,2.66c-.35.75-.65,1.31-.77,1.5-5.69,12.43-4.33,24.71-.22,37.38,3.65,11.26-.6,22.81-9.72,25.31-14.51,4-18.88,13.13-18.27,27.14.55,12.69-3.29,17.39-16.12,20a54.91,54.91,0,0,0-15.14,6.13c-1.54,1-3.14,2.48-2.06,4.56,1.18,2.29,4.07.77,5.36.31,5.16-1.84,9.2-4.26,14.3-6.26,22.25-8.73,41.66-21.55,53.61-42.67C211.16,145.18,212.26,102.58,194.36,59ZM155.07,26s6.23,3.07-4.15,16.38a42.38,42.38,0,0,1-24.47,15.24.12.12,0,0,1-.09-.22c2.93-2.19,5.66-7,14.57-20.69C150.26,22.38,155.07,26,155.07,26Zm-30.14,2.14c1.11-8,4.19-13.12,7.79-12.82a4.11,4.11,0,0,1,3.67,2.48,9,9,0,0,1,.54,3.18,28,28,0,0,1-1.61,10,61.75,61.75,0,0,1-9.49,16.71,81.86,81.86,0,0,1-6.26,7.4C120.68,52.47,123.82,36.12,124.93,28.14ZM109.56,12.27a4.1,4.1,0,0,1,4.31,1,8.66,8.66,0,0,1,1.64,2.78,27.75,27.75,0,0,1,2,9.89,61.32,61.32,0,0,1-2.91,19,77.33,77.33,0,0,1-3.21,9.14c.12-2.82-2.78-19.21-4.59-27.07S106.09,13.27,109.56,12.27ZM88.16,20a6.63,6.63,0,0,1,6,.26,12.25,12.25,0,0,1,4.39,4.34c3.62,5.66,4.52,11.88,5.32,18.44a80.51,80.51,0,0,1-.07,12.52c-.93-2.47-9.25-15.23-13.59-21.16C87.73,31,82.5,22.91,88.16,20ZM62.59,28a7.64,7.64,0,0,1,6.49-2.82,14,14,0,0,1,6.83,2.5c6.68,4.35,10.76,10.71,14.91,17.5,1.94,3.17,3.79,7.66,6.24,13.79-2.23-2.24-17.46-12-25-16.22C67.7,40.35,58.07,34.15,62.59,28ZM46.46,50.25a7.11,7.11,0,0,1,4.16-5.08,13.1,13.1,0,0,1,6.72-.86c7.36.71,13.43,4.19,19.74,8C80,54.08,83.44,57,88.07,61c-2.79-.88-19.5-2.36-27.58-2.62C55.89,58.19,45.31,57.21,46.46,50.25ZM33.87,79.33a9.5,9.5,0,0,1,2.22-8.11,17.35,17.35,0,0,1,7.17-4.8C52,63,60.53,63.5,69.53,64.2c4.2.32,9.5,1.63,16.69,3.5-3.59.59-23.23,8.45-32.5,12.75C48.43,82.9,36,87.83,33.87,79.33Zm3.72,34.19c-2.05-2.77-2.37-6.75-1.39-10.21a22,22,0,0,1,5.5-9C49.49,86.09,59,82.27,69,78.49c4.67-1.76,11-3,19.65-4.54-3.6,2.49-21.13,21.25-29.12,30.77C55,110.14,43.84,122,37.59,113.52Zm53.14,82.07c-1.69,7.75,0,13.2,7.26,17,5.74,3,6.93,9,8.38,14.65a1,1,0,0,1,0,.49,1.69,1.69,0,0,1-2.15,1.21,2.24,2.24,0,0,1-1.14-.61c-5.52-6.44-12.65-9.84-20.72-12.06-6.28-1.72-8-7.35-8-13-.07-8.31-2.67-12.77-12.07-13.17-12.49-.54-19.13-12.07-14.82-23.66,1.68-4.51,2.87-9.2,4.55-13.71,3-8,.22-13.81-6.17-18.69-1.09-.84-4.42-2.25-2.6-3.5s32.89,12.86,28,32.55c-2.45,10,.15,13.94,10.18,16.43C89.94,181.58,92.41,187.9,90.73,195.59ZM88,115.83c-1.33,7-5.29,22.73-14.87,18.4-3.14-1.41-5.36-4.73-6.2-8.23a21.89,21.89,0,0,1,.4-10.55c2.79-11,9.2-18.93,16.13-27.14,3.22-3.82,8.16-8,14.93-13.55C96.42,78.69,90.28,103.62,88,115.83Zm28.17-.86a40,40,0,0,1-3.48,14,12.5,12.5,0,0,1-2.49,3.89,5.89,5.89,0,0,1-6.21,1.24c-4.89-1.6-6.9-11-3.88-22.12s8.87-33.46,8.87-37.5A117.22,117.22,0,0,1,113,87.71C115.24,96.55,116.75,105.81,116.12,115Zm-5.93-44C100.8,71.24,94,70.43,94,67.12s6.6-5.88,16-6.11,16.92,2,17,5.29S119.57,70.77,110.19,71Zm34.91,52.53a9.24,9.24,0,0,1-6.66,5.37c-9.52,1.82-11.85-11-12.48-16.55-1.1-9.79-4.66-30-6.14-33.33,6,5.37,10.27,9.36,13,12.82,5.84,7.43,11.22,14.58,12.88,23.49A14,14,0,0,1,145.1,123.53Zm18.24-13.31c-3.51,2.68-10.93-1.14-17-9.61S127.83,75.27,125.06,73a92.68,92.68,0,0,1,11.05,4.44c7.15,3.34,14.23,7.44,20.17,13.06A38.05,38.05,0,0,1,164.15,101a12.72,12.72,0,0,1,1.42,4A5.5,5.5,0,0,1,163.34,110.22Zm15.52-23.16c-1.93,3.54-9.54,2.79-17.79-2.45S136.21,69,133.06,68a83.92,83.92,0,0,1,10.87,0,69.56,69.56,0,0,1,21.7,4.37,36.47,36.47,0,0,1,10.45,6.35,12.34,12.34,0,0,1,2.68,3A5.21,5.21,0,0,1,178.86,87.06ZM182.06,61a8.58,8.58,0,0,1-8.46,5.14,168.22,168.22,0,0,1-17.09-1.74q-5.7-.74-11.43-1.23a73.26,73.26,0,0,0-11.27-.5S148.2,51.29,167.06,49,182.06,61,182.06,61Z"/></g></g></svg>