<svg width="40" height="40" viewBox="0 0 40 40" fill="none" xmlns="http://www.w3.org/2000/svg">
<circle cx="20" cy="20" r="19" fill="#151515"/>
<path d="M17.6667 19.7211C18.9917 19.0897 19.6833 18.1343 19.6833 16.6472C19.6833 13.7145 17.4917 13 14.9625 13H8V27.7217H15.1583C17.8417 27.7217 20.3625 26.4381 20.3625 23.4472C20.3625 21.5987 19.4833 20.2321 17.6667 19.7211ZM11.2458 15.5132H14.2917C15.4625 15.5132 16.5167 15.8413 16.5167 17.1955C16.5167 18.4459 15.6958 18.9485 14.5375 18.9485H11.2458V15.5132ZM14.7167 25.221H11.2458V21.1667H14.7833C16.2125 21.1667 17.1167 21.7607 17.1167 23.2686C17.1167 24.7557 16.0375 25.221 14.7167 25.221ZM29.6542 15.2224H23.6667V13.7726H29.6542V15.2224ZM32 22.5458C32 19.393 30.15 16.7635 26.7958 16.7635C23.5375 16.7635 21.325 19.206 21.325 22.4046C21.325 25.7236 23.4208 28 26.7958 28C29.35 28 31.0042 26.8535 31.8 24.4151H29.2083C28.9292 25.3248 27.7792 25.8067 26.8875 25.8067C25.1667 25.8067 24.2625 24.8014 24.2625 23.0942H31.975C31.9875 22.9197 32 22.7328 32 22.5458ZM24.2667 21.2498C24.3625 19.8499 25.2958 18.9734 26.7042 18.9734C28.1792 18.9734 28.9208 19.8374 29.0458 21.2498H24.2667Z" fill="#F5F5F5"/>
</svg>
