<svg width="40" height="40" viewBox="0 0 40 40" fill="none" xmlns="http://www.w3.org/2000/svg">
<circle cx="20" cy="20" r="19" fill="#151515"/>
<path d="M29.75 11H10.25C9.00734 11 8 12.0073 8 13.25V26.75C8 27.9927 9.00734 29 10.25 29H29.75C30.9927 29 32 27.9927 32 26.75V13.25C32 12.0073 30.9927 11 29.75 11ZM29.75 13.25V15.1627C28.699 16.0186 27.0234 17.3495 23.4412 20.1545C22.6518 20.7754 21.0881 22.2672 20 22.2498C18.9121 22.2674 17.3479 20.7752 16.5588 20.1545C12.9772 17.3499 11.3012 16.0188 10.25 15.1627V13.25H29.75ZM10.25 26.75V18.0499C11.3241 18.9054 12.8473 20.1059 15.169 21.9239C16.1935 22.7304 17.9877 24.5108 20 24.5C22.0024 24.5108 23.7739 22.7563 24.8306 21.9243C27.1522 20.1064 28.6759 18.9055 29.75 18.05V26.75H10.25Z" fill="#F5F5F5"/>
</svg>
