<svg width="40" height="40" viewBox="0 0 40 40" fill="none" xmlns="http://www.w3.org/2000/svg">
<circle cx="20" cy="20" r="19" fill="black" fill-opacity="0.92"/>
<path d="M16.0016 26.25H12.9436V16.4022H16.0016V26.25ZM14.471 15.0588C13.4931 15.0588 12.7 14.2489 12.7 13.271C12.7 12.8013 12.8866 12.3509 13.2187 12.0187C13.5508 11.6866 14.0013 11.5 14.471 11.5C14.9407 11.5 15.3911 11.6866 15.7233 12.0187C16.0554 12.3509 16.242 12.8013 16.242 13.271C16.242 14.2489 15.4485 15.0588 14.471 15.0588ZM24.3953 26.25V21.4561C24.3953 20.3137 24.3723 18.8485 22.8054 18.8485C21.2155 18.8485 20.9718 20.0898 20.9718 21.3738V26.25H17.9172V16.4022H20.85V17.7455H20.8928C21.3011 16.9718 22.2984 16.1552 23.7862 16.1552C26.8811 16.1552 27.45 18.1933 27.45 20.8404V26.25H24.3953Z" fill="#F5F5F5"/>
</svg>
