<svg width="40" height="40" viewBox="0 0 40 40" fill="none" xmlns="http://www.w3.org/2000/svg">
<path d="M14.4768 30H10.3304V16.647H14.4768V30ZM12.4013 14.8256C11.0754 14.8256 10 13.7273 10 12.4014C10 11.7645 10.253 11.1537 10.7033 10.7034C11.1537 10.253 11.7645 10 12.4013 10C13.0382 10 13.649 10.253 14.0993 10.7034C14.5497 11.1537 14.8027 11.7645 14.8027 12.4014C14.8027 13.7273 13.7268 14.8256 12.4013 14.8256ZM25.858 30V23.4999C25.858 21.9507 25.8268 19.9641 23.7022 19.9641C21.5464 19.9641 21.2161 21.6471 21.2161 23.3882V30H17.0741V16.647H21.0509V18.4685H21.1089C21.6625 17.4194 23.0147 16.3122 25.0321 16.3122C29.2286 16.3122 30 19.0756 30 22.665V30H25.858Z" fill="#151515"/>
</svg>
