<svg width="40" height="40" viewBox="0 0 40 40" fill="none" xmlns="http://www.w3.org/2000/svg">
<path d="M15.0016 26.25H11.9436V16.4022H15.0016V26.25ZM13.471 15.0588C12.4931 15.0588 11.7 14.2489 11.7 13.271C11.7 12.8013 11.8866 12.3509 12.2187 12.0187C12.5508 11.6866 13.0013 11.5 13.471 11.5C13.9407 11.5 14.3911 11.6866 14.7233 12.0187C15.0554 12.3509 15.242 12.8013 15.242 13.271C15.242 14.2489 14.4485 15.0588 13.471 15.0588ZM23.3953 26.25V21.4561C23.3953 20.3137 23.3723 18.8485 21.8054 18.8485C20.2155 18.8485 19.9718 20.0898 19.9718 21.3738V26.25H16.9172V16.4022H19.85V17.7455H19.8928C20.3011 16.9718 21.2984 16.1552 22.7862 16.1552C25.8811 16.1552 26.45 18.1933 26.45 20.8404V26.25H23.3953Z" fill="black" fill-opacity="0.92"/>
</svg>
